<mxfile host="app.diagrams.net" modified="2021-05-13T12:39:05.411Z" agent="5.0 (Macintosh; Intel Mac OS X 10_15_7) AppleWebKit/537.36 (KHTML, like Gecko) Chrome/90.0.4430.93 Safari/537.36" etag="HGT5VqDmzqEyzkAoGgFf" version="14.6.11" type="github">
  <diagram id="LdA-1L0uCgT_CVbXWtCU" name="Page-1">
    <mxGraphModel dx="1426" dy="769" grid="1" gridSize="1" guides="1" tooltips="1" connect="1" arrows="1" fold="1" page="1" pageScale="1" pageWidth="827" pageHeight="1169" math="0" shadow="0">
      <root>
        <mxCell id="0" />
        <mxCell id="1" parent="0" />
        <mxCell id="Z3BZxSyH4zlGaA9qWHIY-7" value="ts-ecs-cluster-01                                     " style="fillColor=#EFF0F3;strokeColor=none;dashed=0;verticalAlign=top;fontStyle=0;fontColor=#232F3D;" parent="1" vertex="1">
          <mxGeometry x="239" y="573" width="517" height="102" as="geometry" />
        </mxCell>
        <mxCell id="lxqPDfeSCclGnKKYvE98-23" value="us-west-2" style="outlineConnect=0;gradientColor=none;html=1;whiteSpace=wrap;fontSize=12;fontStyle=0;shape=mxgraph.aws4.group;grIcon=mxgraph.aws4.group_region;strokeColor=#879196;fillColor=none;verticalAlign=top;align=left;spacingLeft=30;fontColor=#879196;dashed=1;" parent="1" vertex="1">
          <mxGeometry x="100" y="110" width="720" height="920" as="geometry" />
        </mxCell>
        <mxCell id="Rn8A0Fxg7lWSqy2aSkI7-1" value="VPC&lt;br&gt;10.10.0.0/16" style="outlineConnect=0;gradientColor=none;html=1;whiteSpace=wrap;fontSize=12;fontStyle=0;shape=mxgraph.aws4.group;grIcon=mxgraph.aws4.group_vpc;strokeColor=#879196;fillColor=none;verticalAlign=top;align=left;spacingLeft=30;fontColor=#879196;dashed=0;" parent="1" vertex="1">
          <mxGeometry x="118" y="244" width="681" height="761" as="geometry" />
        </mxCell>
        <mxCell id="Rn8A0Fxg7lWSqy2aSkI7-2" value="us-west-2a" style="outlineConnect=0;gradientColor=none;html=1;whiteSpace=wrap;fontSize=12;fontStyle=0;shape=mxgraph.aws4.group;grIcon=mxgraph.aws4.group_availability_zone;strokeColor=#545B64;fillColor=none;verticalAlign=top;align=left;spacingLeft=30;fontColor=#545B64;dashed=1;" parent="1" vertex="1">
          <mxGeometry x="215.5" y="211" width="149" height="816" as="geometry" />
        </mxCell>
        <mxCell id="Rn8A0Fxg7lWSqy2aSkI7-5" value="10.10.3.0/24&lt;br&gt;ts-vpc-01-subnet_03" style="outlineConnect=0;gradientColor=none;html=1;whiteSpace=wrap;fontSize=12;fontStyle=0;shape=mxgraph.aws4.group;grIcon=mxgraph.aws4.group_subnet;strokeColor=#879196;fillColor=none;verticalAlign=top;align=left;spacingLeft=30;fontColor=#879196;dashed=0;" parent="1" vertex="1">
          <mxGeometry x="220.5" y="518" width="139.5" height="229" as="geometry" />
        </mxCell>
        <mxCell id="Rn8A0Fxg7lWSqy2aSkI7-3" value="us-west-2b" style="outlineConnect=0;gradientColor=none;html=1;whiteSpace=wrap;fontSize=12;fontStyle=0;shape=mxgraph.aws4.group;grIcon=mxgraph.aws4.group_availability_zone;strokeColor=#545B64;fillColor=none;verticalAlign=top;align=left;spacingLeft=30;fontColor=#545B64;dashed=1;" parent="1" vertex="1">
          <mxGeometry x="490.99" y="211" width="156.51" height="813" as="geometry" />
        </mxCell>
        <mxCell id="Rn8A0Fxg7lWSqy2aSkI7-6" value="10.10.4.0/24&lt;br&gt;ts-vpc-01-subnet_04" style="outlineConnect=0;gradientColor=none;html=1;whiteSpace=wrap;fontSize=12;fontStyle=0;shape=mxgraph.aws4.group;grIcon=mxgraph.aws4.group_subnet;strokeColor=#879196;fillColor=none;verticalAlign=top;align=left;spacingLeft=30;fontColor=#879196;dashed=0;" parent="1" vertex="1">
          <mxGeometry x="504.5" y="517" width="137.5" height="230" as="geometry" />
        </mxCell>
        <mxCell id="Rn8A0Fxg7lWSqy2aSkI7-4" value="10.10.2.0/24&lt;br&gt;ts-vpc-01-subnet_02" style="outlineConnect=0;gradientColor=none;html=1;whiteSpace=wrap;fontSize=12;fontStyle=0;shape=mxgraph.aws4.group;grIcon=mxgraph.aws4.group_subnet;strokeColor=#879196;fillColor=none;verticalAlign=top;align=left;spacingLeft=30;fontColor=#879196;dashed=0;" parent="1" vertex="1">
          <mxGeometry x="509.5" y="275" width="128" height="216" as="geometry" />
        </mxCell>
        <mxCell id="Rn8A0Fxg7lWSqy2aSkI7-7" value="10.10.1.0/24&lt;br&gt;ts-vpc-01-subnet_01" style="outlineConnect=0;gradientColor=none;html=1;whiteSpace=wrap;fontSize=12;fontStyle=0;shape=mxgraph.aws4.group;grIcon=mxgraph.aws4.group_subnet;strokeColor=#879196;fillColor=none;verticalAlign=top;align=left;spacingLeft=30;fontColor=#879196;dashed=0;" parent="1" vertex="1">
          <mxGeometry x="231.5" y="278" width="123.5" height="216" as="geometry" />
        </mxCell>
        <mxCell id="Rn8A0Fxg7lWSqy2aSkI7-8" value="" style="outlineConnect=0;dashed=0;verticalLabelPosition=bottom;verticalAlign=top;align=center;html=1;shape=mxgraph.aws3.internet_gateway;fillColor=#F58534;gradientColor=none;" parent="1" vertex="1">
          <mxGeometry x="405.5" y="275" width="41.21" height="43" as="geometry" />
        </mxCell>
        <mxCell id="Rn8A0Fxg7lWSqy2aSkI7-9" value="ts-vpc-01-igw" style="text;html=1;align=center;verticalAlign=middle;resizable=0;points=[];autosize=1;" parent="1" vertex="1">
          <mxGeometry x="351.22999999999996" y="256" width="82" height="19" as="geometry" />
        </mxCell>
        <mxCell id="Rn8A0Fxg7lWSqy2aSkI7-10" value="" style="outlineConnect=0;dashed=0;verticalLabelPosition=bottom;verticalAlign=top;align=center;html=1;shape=mxgraph.aws3.internet;fillColor=#D2D3D3;gradientColor=none;" parent="1" vertex="1">
          <mxGeometry x="380.25" y="10" width="79.5" height="79.5" as="geometry" />
        </mxCell>
        <mxCell id="Rn8A0Fxg7lWSqy2aSkI7-18" value="" style="endArrow=classic;html=1;exitX=0.6;exitY=1;exitDx=0;exitDy=0;exitPerimeter=0;" parent="1" source="Rn8A0Fxg7lWSqy2aSkI7-10" target="Rn8A0Fxg7lWSqy2aSkI7-8" edge="1">
          <mxGeometry width="50" height="50" relative="1" as="geometry">
            <mxPoint x="409" y="250" as="sourcePoint" />
            <mxPoint x="459" y="200" as="targetPoint" />
          </mxGeometry>
        </mxCell>
        <mxCell id="Rn8A0Fxg7lWSqy2aSkI7-23" value="10.10.6.0/24&lt;br&gt;ts-vpc-01-subnet_06" style="outlineConnect=0;gradientColor=none;html=1;whiteSpace=wrap;fontSize=12;fontStyle=0;shape=mxgraph.aws4.group;grIcon=mxgraph.aws4.group_subnet;strokeColor=#879196;fillColor=none;verticalAlign=top;align=left;spacingLeft=30;fontColor=#879196;dashed=0;" parent="1" vertex="1">
          <mxGeometry x="501.21" y="824" width="138.79" height="118" as="geometry" />
        </mxCell>
        <mxCell id="Rn8A0Fxg7lWSqy2aSkI7-24" value="10.10.5.0/24&lt;br&gt;ts-vpc-01-subnet_05" style="outlineConnect=0;gradientColor=none;html=1;whiteSpace=wrap;fontSize=12;fontStyle=0;shape=mxgraph.aws4.group;grIcon=mxgraph.aws4.group_subnet;strokeColor=#879196;fillColor=none;verticalAlign=top;align=left;spacingLeft=30;fontColor=#879196;dashed=0;" parent="1" vertex="1">
          <mxGeometry x="222" y="828" width="136" height="119" as="geometry" />
        </mxCell>
        <mxCell id="Rn8A0Fxg7lWSqy2aSkI7-31" value="" style="dashed=0;html=1;shape=mxgraph.aws3.permissions;fillColor=#D9A741;gradientColor=none;dashed=0;" parent="1" vertex="1">
          <mxGeometry x="336.15000000000003" y="502" width="18.85" height="22" as="geometry" />
        </mxCell>
        <mxCell id="Rn8A0Fxg7lWSqy2aSkI7-32" value="" style="dashed=0;html=1;shape=mxgraph.aws3.permissions;fillColor=#D9A741;gradientColor=none;dashed=0;" parent="1" vertex="1">
          <mxGeometry x="618.6500000000001" y="502" width="18.85" height="22" as="geometry" />
        </mxCell>
        <mxCell id="Rn8A0Fxg7lWSqy2aSkI7-35" value="" style="dashed=0;html=1;shape=mxgraph.aws3.permissions;fillColor=#D9A741;gradientColor=none;dashed=0;" parent="1" vertex="1">
          <mxGeometry x="614.1500000000001" y="810" width="18.85" height="22" as="geometry" />
        </mxCell>
        <mxCell id="Rn8A0Fxg7lWSqy2aSkI7-36" value="" style="dashed=0;html=1;shape=mxgraph.aws3.permissions;fillColor=#D9A741;gradientColor=none;dashed=0;" parent="1" vertex="1">
          <mxGeometry x="333.0000000000001" y="813" width="18.85" height="22" as="geometry" />
        </mxCell>
        <mxCell id="lxqPDfeSCclGnKKYvE98-1" value="" style="endArrow=none;html=1;entryX=0.145;entryY=0.855;entryDx=0;entryDy=0;entryPerimeter=0;startArrow=none;" parent="1" source="Rn8A0Fxg7lWSqy2aSkI7-53" target="Rn8A0Fxg7lWSqy2aSkI7-8" edge="1">
          <mxGeometry width="50" height="50" relative="1" as="geometry">
            <mxPoint x="410" y="530" as="sourcePoint" />
            <mxPoint x="460" y="480" as="targetPoint" />
          </mxGeometry>
        </mxCell>
        <mxCell id="Rn8A0Fxg7lWSqy2aSkI7-53" value="" style="outlineConnect=0;dashed=0;verticalLabelPosition=bottom;verticalAlign=top;align=center;html=1;shape=mxgraph.aws3.router;fillColor=#F58534;gradientColor=none;" parent="1" vertex="1">
          <mxGeometry x="380.25000000000006" y="320" width="23.96" height="25" as="geometry" />
        </mxCell>
        <mxCell id="lxqPDfeSCclGnKKYvE98-2" value="" style="endArrow=none;html=1;entryX=0.145;entryY=0.855;entryDx=0;entryDy=0;entryPerimeter=0;" parent="1" source="Rn8A0Fxg7lWSqy2aSkI7-7" target="Rn8A0Fxg7lWSqy2aSkI7-53" edge="1">
          <mxGeometry width="50" height="50" relative="1" as="geometry">
            <mxPoint x="355" y="368.00616555064926" as="sourcePoint" />
            <mxPoint x="411.4754499999999" y="311.7650000000001" as="targetPoint" />
          </mxGeometry>
        </mxCell>
        <mxCell id="lxqPDfeSCclGnKKYvE98-3" value="" style="endArrow=none;html=1;entryX=0.855;entryY=0.855;entryDx=0;entryDy=0;entryPerimeter=0;startArrow=none;" parent="1" source="Rn8A0Fxg7lWSqy2aSkI7-52" target="Rn8A0Fxg7lWSqy2aSkI7-8" edge="1">
          <mxGeometry width="50" height="50" relative="1" as="geometry">
            <mxPoint x="410" y="530" as="sourcePoint" />
            <mxPoint x="460" y="480" as="targetPoint" />
          </mxGeometry>
        </mxCell>
        <mxCell id="lxqPDfeSCclGnKKYvE98-4" value="" style="points=[[0,0,0],[0.25,0,0],[0.5,0,0],[0.75,0,0],[1,0,0],[0,1,0],[0.25,1,0],[0.5,1,0],[0.75,1,0],[1,1,0],[0,0.25,0],[0,0.5,0],[0,0.75,0],[1,0.25,0],[1,0.5,0],[1,0.75,0]];outlineConnect=0;fontColor=#232F3E;gradientColor=#F78E04;gradientDirection=north;fillColor=#D05C17;strokeColor=#ffffff;dashed=0;verticalLabelPosition=bottom;verticalAlign=top;align=center;html=1;fontSize=12;fontStyle=0;aspect=fixed;shape=mxgraph.aws4.resourceIcon;resIcon=mxgraph.aws4.ecs;" parent="1" vertex="1">
          <mxGeometry x="675.5" y="605" width="51" height="51" as="geometry" />
        </mxCell>
        <mxCell id="lxqPDfeSCclGnKKYvE98-5" value="" style="points=[[0,0,0],[0.25,0,0],[0.5,0,0],[0.75,0,0],[1,0,0],[0,1,0],[0.25,1,0],[0.5,1,0],[0.75,1,0],[1,1,0],[0,0.25,0],[0,0.5,0],[0,0.75,0],[1,0.25,0],[1,0.5,0],[1,0.75,0]];outlineConnect=0;fontColor=#232F3E;gradientColor=#F78E04;gradientDirection=north;fillColor=#D05C17;strokeColor=#ffffff;dashed=0;verticalLabelPosition=bottom;verticalAlign=top;align=center;html=1;fontSize=12;fontStyle=0;aspect=fixed;shape=mxgraph.aws4.resourceIcon;resIcon=mxgraph.aws4.ecr;" parent="1" vertex="1">
          <mxGeometry x="700" y="150" width="51" height="51" as="geometry" />
        </mxCell>
        <mxCell id="lxqPDfeSCclGnKKYvE98-7" value="ts-ecs-cluster-01" style="text;html=1;align=center;verticalAlign=middle;resizable=0;points=[];autosize=1;strokeColor=none;" parent="1" vertex="1">
          <mxGeometry x="651" y="585" width="100" height="20" as="geometry" />
        </mxCell>
        <mxCell id="lxqPDfeSCclGnKKYvE98-8" value="ts-ecs-service-01" style="text;html=1;align=center;verticalAlign=middle;resizable=0;points=[];autosize=1;strokeColor=none;" parent="1" vertex="1">
          <mxGeometry x="538" y="584" width="110" height="20" as="geometry" />
        </mxCell>
        <mxCell id="lxqPDfeSCclGnKKYvE98-9" value="" style="outlineConnect=0;dashed=0;verticalLabelPosition=bottom;verticalAlign=top;align=center;html=1;shape=mxgraph.aws3.ec2;fillColor=#F58534;gradientColor=none;" parent="1" vertex="1">
          <mxGeometry x="570" y="606" width="40" height="43" as="geometry" />
        </mxCell>
        <mxCell id="lxqPDfeSCclGnKKYvE98-12" value="ts-ecr-01" style="text;html=1;align=center;verticalAlign=middle;resizable=0;points=[];autosize=1;strokeColor=none;" parent="1" vertex="1">
          <mxGeometry x="696.5" y="126" width="58" height="19" as="geometry" />
        </mxCell>
        <mxCell id="lxqPDfeSCclGnKKYvE98-13" value="" style="outlineConnect=0;dashed=0;verticalLabelPosition=bottom;verticalAlign=top;align=center;html=1;shape=mxgraph.aws3.application_load_balancer;fillColor=#F58534;gradientColor=none;" parent="1" vertex="1">
          <mxGeometry x="410.71" y="360" width="36" height="31.5" as="geometry" />
        </mxCell>
        <mxCell id="Rn8A0Fxg7lWSqy2aSkI7-52" value="" style="outlineConnect=0;dashed=0;verticalLabelPosition=bottom;verticalAlign=top;align=center;html=1;shape=mxgraph.aws3.router;fillColor=#F58534;gradientColor=none;" parent="1" vertex="1">
          <mxGeometry x="450" y="320" width="23.96" height="25" as="geometry" />
        </mxCell>
        <mxCell id="lxqPDfeSCclGnKKYvE98-15" value="" style="endArrow=none;html=1;entryX=0.855;entryY=0.855;entryDx=0;entryDy=0;entryPerimeter=0;" parent="1" source="Rn8A0Fxg7lWSqy2aSkI7-4" target="Rn8A0Fxg7lWSqy2aSkI7-52" edge="1">
          <mxGeometry width="50" height="50" relative="1" as="geometry">
            <mxPoint x="509.5" y="371.4506081966356" as="sourcePoint" />
            <mxPoint x="440.7345499999999" y="311.7650000000001" as="targetPoint" />
          </mxGeometry>
        </mxCell>
        <mxCell id="lxqPDfeSCclGnKKYvE98-16" value="" style="outlineConnect=0;dashed=0;verticalLabelPosition=bottom;verticalAlign=top;align=center;html=1;shape=mxgraph.aws3.application_load_balancer;fillColor=#F58534;gradientColor=none;" parent="1" vertex="1">
          <mxGeometry x="514" y="413.75" width="36" height="31.5" as="geometry" />
        </mxCell>
        <mxCell id="lxqPDfeSCclGnKKYvE98-17" value="" style="outlineConnect=0;dashed=0;verticalLabelPosition=bottom;verticalAlign=top;align=center;html=1;shape=mxgraph.aws3.application_load_balancer;fillColor=#F58534;gradientColor=none;" parent="1" vertex="1">
          <mxGeometry x="315.84999999999997" y="408.5" width="36" height="31.5" as="geometry" />
        </mxCell>
        <mxCell id="lxqPDfeSCclGnKKYvE98-18" value="" style="endArrow=classic;html=1;exitX=0.5;exitY=1;exitDx=0;exitDy=0;exitPerimeter=0;entryX=0.5;entryY=0;entryDx=0;entryDy=0;entryPerimeter=0;" parent="1" source="Rn8A0Fxg7lWSqy2aSkI7-8" target="lxqPDfeSCclGnKKYvE98-13" edge="1">
          <mxGeometry width="50" height="50" relative="1" as="geometry">
            <mxPoint x="410" y="580" as="sourcePoint" />
            <mxPoint x="460" y="530" as="targetPoint" />
          </mxGeometry>
        </mxCell>
        <mxCell id="lxqPDfeSCclGnKKYvE98-19" value="" style="endArrow=classic;html=1;exitX=1;exitY=0.5;exitDx=0;exitDy=0;exitPerimeter=0;" parent="1" source="lxqPDfeSCclGnKKYvE98-13" target="lxqPDfeSCclGnKKYvE98-16" edge="1">
          <mxGeometry width="50" height="50" relative="1" as="geometry">
            <mxPoint x="410" y="580" as="sourcePoint" />
            <mxPoint x="460" y="530" as="targetPoint" />
          </mxGeometry>
        </mxCell>
        <mxCell id="lxqPDfeSCclGnKKYvE98-20" value="" style="endArrow=classic;html=1;exitX=0;exitY=0.5;exitDx=0;exitDy=0;exitPerimeter=0;entryX=0.855;entryY=0.145;entryDx=0;entryDy=0;entryPerimeter=0;" parent="1" source="lxqPDfeSCclGnKKYvE98-13" target="lxqPDfeSCclGnKKYvE98-17" edge="1">
          <mxGeometry width="50" height="50" relative="1" as="geometry">
            <mxPoint x="410" y="580" as="sourcePoint" />
            <mxPoint x="460" y="530" as="targetPoint" />
          </mxGeometry>
        </mxCell>
        <mxCell id="lxqPDfeSCclGnKKYvE98-22" value="ts-vpc-01-alb-01" style="text;html=1;align=center;verticalAlign=middle;resizable=0;points=[];autosize=1;strokeColor=none;" parent="1" vertex="1">
          <mxGeometry x="378" y="393" width="98" height="19" as="geometry" />
        </mxCell>
        <mxCell id="lxqPDfeSCclGnKKYvE98-24" value="" style="outlineConnect=0;dashed=0;verticalLabelPosition=bottom;verticalAlign=top;align=center;html=1;shape=mxgraph.aws3.vpc_nat_gateway;fillColor=#F58534;gradientColor=none;" parent="1" vertex="1">
          <mxGeometry x="242.25" y="413.75" width="38.5" height="35.25" as="geometry" />
        </mxCell>
        <mxCell id="lxqPDfeSCclGnKKYvE98-25" value="ts-nat-gw" style="text;html=1;align=center;verticalAlign=middle;resizable=0;points=[];autosize=1;strokeColor=none;" parent="1" vertex="1">
          <mxGeometry x="231.5" y="449" width="60" height="20" as="geometry" />
        </mxCell>
        <mxCell id="lxqPDfeSCclGnKKYvE98-26" value="" style="outlineConnect=0;dashed=0;verticalLabelPosition=bottom;verticalAlign=top;align=center;html=1;shape=mxgraph.aws3.rds;fillColor=#2E73B8;gradientColor=none;" parent="1" vertex="1">
          <mxGeometry x="312" y="885" width="30" height="37" as="geometry" />
        </mxCell>
        <mxCell id="lxqPDfeSCclGnKKYvE98-27" value="tsrdsdb01" style="text;html=1;align=center;verticalAlign=middle;resizable=0;points=[];autosize=1;strokeColor=none;" parent="1" vertex="1">
          <mxGeometry x="293" y="922" width="70" height="20" as="geometry" />
        </mxCell>
        <mxCell id="lxqPDfeSCclGnKKYvE98-29" value="" style="dashed=0;outlineConnect=0;html=1;align=center;labelPosition=center;verticalLabelPosition=bottom;verticalAlign=top;shape=mxgraph.weblogos.github" parent="1" vertex="1">
          <mxGeometry x="636.5" y="20" width="39" height="40" as="geometry" />
        </mxCell>
        <mxCell id="lxqPDfeSCclGnKKYvE98-31" value="" style="edgeStyle=orthogonalEdgeStyle;rounded=0;orthogonalLoop=1;jettySize=auto;html=1;" parent="1" source="lxqPDfeSCclGnKKYvE98-30" target="lxqPDfeSCclGnKKYvE98-5" edge="1">
          <mxGeometry relative="1" as="geometry">
            <Array as="points">
              <mxPoint x="660" y="40" />
              <mxPoint x="660" y="85" />
              <mxPoint x="650" y="85" />
              <mxPoint x="650" y="150" />
            </Array>
          </mxGeometry>
        </mxCell>
        <mxCell id="lxqPDfeSCclGnKKYvE98-30" value="GitHub action deploy" style="text;html=1;align=center;verticalAlign=middle;resizable=0;points=[];autosize=1;strokeColor=none;" parent="1" vertex="1">
          <mxGeometry x="670" y="30" width="130" height="20" as="geometry" />
        </mxCell>
        <mxCell id="lxqPDfeSCclGnKKYvE98-33" value="" style="outlineConnect=0;dashed=0;verticalLabelPosition=bottom;verticalAlign=top;align=center;html=1;shape=mxgraph.aws3.route_53;fillColor=#F58536;gradientColor=none;" parent="1" vertex="1">
          <mxGeometry x="437.96" y="133.5" width="36" height="47.5" as="geometry" />
        </mxCell>
        <mxCell id="lxqPDfeSCclGnKKYvE98-35" style="edgeStyle=orthogonalEdgeStyle;rounded=0;orthogonalLoop=1;jettySize=auto;html=1;exitX=0.5;exitY=1;exitDx=0;exitDy=0;" parent="1" edge="1">
          <mxGeometry relative="1" as="geometry">
            <mxPoint x="520" y="710" as="sourcePoint" />
            <mxPoint x="520" y="710" as="targetPoint" />
          </mxGeometry>
        </mxCell>
        <mxCell id="lxqPDfeSCclGnKKYvE98-36" value="" style="verticalLabelPosition=bottom;html=1;verticalAlign=top;strokeWidth=1;align=center;outlineConnect=0;dashed=0;outlineConnect=0;shape=mxgraph.aws3d.end_user;strokeColor=none;fillColor=#777777;aspect=fixed;" parent="1" vertex="1">
          <mxGeometry x="501.21000000000004" y="29.75" width="19.51" height="40" as="geometry" />
        </mxCell>
        <mxCell id="lxqPDfeSCclGnKKYvE98-37" value="" style="endArrow=classic;html=1;" parent="1" source="lxqPDfeSCclGnKKYvE98-36" target="Rn8A0Fxg7lWSqy2aSkI7-10" edge="1">
          <mxGeometry width="50" height="50" relative="1" as="geometry">
            <mxPoint x="320" y="360" as="sourcePoint" />
            <mxPoint x="370" y="310" as="targetPoint" />
          </mxGeometry>
        </mxCell>
        <mxCell id="lxqPDfeSCclGnKKYvE98-38" value="http/s" style="text;html=1;align=center;verticalAlign=middle;resizable=0;points=[];autosize=1;strokeColor=none;" parent="1" vertex="1">
          <mxGeometry x="461.21000000000004" y="20" width="40" height="20" as="geometry" />
        </mxCell>
        <mxCell id="lxqPDfeSCclGnKKYvE98-39" value="" style="endArrow=classic;html=1;entryX=0.855;entryY=0.145;entryDx=0;entryDy=0;entryPerimeter=0;" parent="1" source="lxqPDfeSCclGnKKYvE98-33" target="Rn8A0Fxg7lWSqy2aSkI7-8" edge="1">
          <mxGeometry width="50" height="50" relative="1" as="geometry">
            <mxPoint x="310" y="340" as="sourcePoint" />
            <mxPoint x="431" y="280" as="targetPoint" />
          </mxGeometry>
        </mxCell>
        <mxCell id="lxqPDfeSCclGnKKYvE98-40" value="https" style="text;html=1;align=center;verticalAlign=middle;resizable=0;points=[];autosize=1;strokeColor=none;" parent="1" vertex="1">
          <mxGeometry x="442.23" y="191" width="40" height="20" as="geometry" />
        </mxCell>
        <mxCell id="lxqPDfeSCclGnKKYvE98-43" value="" style="points=[[0,0,0],[0.25,0,0],[0.5,0,0],[0.75,0,0],[1,0,0],[0,1,0],[0.25,1,0],[0.5,1,0],[0.75,1,0],[1,1,0],[0,0.25,0],[0,0.5,0],[0,0.75,0],[1,0.25,0],[1,0.5,0],[1,0.75,0]];outlineConnect=0;fontColor=#232F3E;gradientColor=#F54749;gradientDirection=north;fillColor=#C7131F;strokeColor=#ffffff;dashed=0;verticalLabelPosition=bottom;verticalAlign=top;align=center;html=1;fontSize=12;fontStyle=0;aspect=fixed;shape=mxgraph.aws4.resourceIcon;resIcon=mxgraph.aws4.secrets_manager;" parent="1" vertex="1">
          <mxGeometry x="414" y="906" width="20" height="20" as="geometry" />
        </mxCell>
        <mxCell id="lxqPDfeSCclGnKKYvE98-44" value="&lt;a target=&quot;_self&quot; href=&quot;https://us-west-2.console.aws.amazon.com/secretsmanager/home?region=us-west-2#!/secret?name=tsrdsdb01-cred&quot; style=&quot;cursor: pointer ; background-color: rgb(255 , 255 , 255) ; box-sizing: border-box ; font-family: &amp;#34;amazon ember&amp;#34; , &amp;#34;helvetica neue&amp;#34; , &amp;#34;roboto&amp;#34; , &amp;#34;arial&amp;#34; , sans-serif ; font-size: 14px&quot;&gt;&lt;font color=&quot;#000000&quot;&gt;tsrdsdb01-cred&lt;/font&gt;&lt;/a&gt;" style="text;html=1;align=center;verticalAlign=middle;resizable=0;points=[];autosize=1;strokeColor=none;" parent="1" vertex="1">
          <mxGeometry x="368" y="927" width="108" height="20" as="geometry" />
        </mxCell>
        <mxCell id="lxqPDfeSCclGnKKYvE98-47" value="" style="endArrow=classic;html=1;" parent="1" target="lxqPDfeSCclGnKKYvE98-33" edge="1">
          <mxGeometry width="50" height="50" relative="1" as="geometry">
            <mxPoint x="460" y="50" as="sourcePoint" />
            <mxPoint x="550" y="530" as="targetPoint" />
          </mxGeometry>
        </mxCell>
        <mxCell id="Z3BZxSyH4zlGaA9qWHIY-2" value="ts-ecs-service-01" style="text;html=1;align=center;verticalAlign=middle;resizable=0;points=[];autosize=1;strokeColor=none;" parent="1" vertex="1">
          <mxGeometry x="254.5" y="585" width="110" height="20" as="geometry" />
        </mxCell>
        <mxCell id="Z3BZxSyH4zlGaA9qWHIY-3" value="" style="outlineConnect=0;dashed=0;verticalLabelPosition=bottom;verticalAlign=top;align=center;html=1;shape=mxgraph.aws3.ec2;fillColor=#F58534;gradientColor=none;" parent="1" vertex="1">
          <mxGeometry x="291.5" y="610" width="40" height="43" as="geometry" />
        </mxCell>
        <mxCell id="Z3BZxSyH4zlGaA9qWHIY-9" value="" style="endArrow=none;dashed=1;html=1;dashPattern=1 3;strokeWidth=2;entryX=0.5;entryY=1;entryDx=0;entryDy=0;entryPerimeter=0;exitX=0.939;exitY=-0.031;exitDx=0;exitDy=0;exitPerimeter=0;" parent="1" source="Z3BZxSyH4zlGaA9qWHIY-7" target="lxqPDfeSCclGnKKYvE98-5" edge="1">
          <mxGeometry width="50" height="50" relative="1" as="geometry">
            <mxPoint x="655" y="570" as="sourcePoint" />
            <mxPoint x="460" y="530" as="targetPoint" />
          </mxGeometry>
        </mxCell>
        <mxCell id="Z3BZxSyH4zlGaA9qWHIY-10" value="" style="endArrow=classic;html=1;jumpSize=1;entryX=0.375;entryY=0.02;entryDx=0;entryDy=0;entryPerimeter=0;" parent="1" target="Z3BZxSyH4zlGaA9qWHIY-7" edge="1">
          <mxGeometry width="50" height="50" relative="1" as="geometry">
            <mxPoint x="433" y="391" as="sourcePoint" />
            <mxPoint x="432.875" y="575.04" as="targetPoint" />
          </mxGeometry>
        </mxCell>
        <mxCell id="dZV5pONAH63C2z5VYyk5-7" value="" style="endArrow=classic;startArrow=classic;html=1;entryX=0.368;entryY=1;entryDx=0;entryDy=0;entryPerimeter=0;exitX=1;exitY=0.22;exitDx=0;exitDy=0;exitPerimeter=0;" parent="1" source="lxqPDfeSCclGnKKYvE98-26" target="Z3BZxSyH4zlGaA9qWHIY-7" edge="1">
          <mxGeometry width="50" height="50" relative="1" as="geometry">
            <mxPoint x="380" y="872" as="sourcePoint" />
            <mxPoint x="430" y="822" as="targetPoint" />
            <Array as="points">
              <mxPoint x="430" y="893" />
            </Array>
          </mxGeometry>
        </mxCell>
        <mxCell id="dZV5pONAH63C2z5VYyk5-10" style="edgeStyle=orthogonalEdgeStyle;rounded=0;orthogonalLoop=1;jettySize=auto;html=1;exitX=0;exitY=0.5;exitDx=0;exitDy=0;exitPerimeter=0;entryX=0;entryY=1;entryDx=0;entryDy=0;" parent="1" source="dZV5pONAH63C2z5VYyk5-8" target="Z3BZxSyH4zlGaA9qWHIY-7" edge="1">
          <mxGeometry relative="1" as="geometry">
            <Array as="points">
              <mxPoint x="189" y="359" />
              <mxPoint x="189" y="695" />
              <mxPoint x="239" y="695" />
            </Array>
          </mxGeometry>
        </mxCell>
        <mxCell id="dZV5pONAH63C2z5VYyk5-8" value="" style="outlineConnect=0;dashed=0;verticalLabelPosition=bottom;verticalAlign=top;align=center;html=1;shape=mxgraph.aws3.ec2;fillColor=#F58534;gradientColor=none;" parent="1" vertex="1">
          <mxGeometry x="263" y="342" width="30.7" height="33" as="geometry" />
        </mxCell>
        <mxCell id="dZV5pONAH63C2z5VYyk5-9" value="ts-bastion-host" style="text;html=1;align=center;verticalAlign=middle;resizable=0;points=[];autosize=1;strokeColor=none;" parent="1" vertex="1">
          <mxGeometry x="236" y="373" width="90" height="19" as="geometry" />
        </mxCell>
        <mxCell id="e2P1gHjmhjHldutBldOC-1" value="" style="outlineConnect=0;dashed=0;verticalLabelPosition=bottom;verticalAlign=top;align=center;html=1;shape=mxgraph.aws3.vpc_nat_gateway;fillColor=#F58534;gradientColor=none;" vertex="1" parent="1">
          <mxGeometry x="576.77" y="340" width="37.38" height="39" as="geometry" />
        </mxCell>
      </root>
    </mxGraphModel>
  </diagram>
</mxfile>
